<svg version="1.1" id="Art" xmlns="http://www.w3.org/2000/svg" xmlns:xlink="http://www.w3.org/1999/xlink" x="0px" y="0px" viewBox="-502.4 28.3 566.8 204.7" style="enable-background:new -502.4 28.3 566.8 204.7;" xml:space="preserve">
 <style type="text/css">
  .st0{fill:#FFFFFF;fill-opacity:0;}
	.st1{fill:#004833;}
	.st2{fill:#E30000;}
	.st3{fill:#FFCD00;}
	.st4{fill:#78BE20;}
	.st5{fill:#FFFFFF;}
 </style>
 <title id="title" lang="en">
  StGeorge logo
 </title>
 <g>
  <rect x="-502.4" y="28.3" class="st0" width="566.8" height="204.7">
  </rect>
  <path class="st1" d="M-473.1,154c1.9,3.8,2.8,5.7,2.2,10.4c-0.3,2.8-2.5,4.4-4.4,5.7c0,0,1.9-6.3-0.6-11
		c-3.8-7.9-6.9-7.2-22.7-13.2c-1.9-0.6-3.8-3.1-3.8-3.5s12.6,1.9,18.9,3.8C-480,147-475,150.5-473.1,154">
  </path>
  <path class="st2" d="M32,163.7c-3.5,12-11,17-21.7,17c-14.5,0-23.6-11-23.6-26.4c0-15.1,9.4-26.8,23.6-26.8
		c15.7,0,23.3,14.5,22.4,29.9H-0.8c0.3,8.8,4.4,12.9,11.3,12.9c3.8,0,6.9-1.9,8.8-4.1c1.3-1.6,3.1-2.5,5-2.5H32z M20.3,148.9
		c-1.3-6.9-3.8-10.7-10.1-10.7c-8.2,0-10.4,6.9-10.4,10.7H20.3z">
  </path>
  <path class="st2" d="M-27.9,132.9c2.2-3.1,5-5.4,7.9-5.4v48.8c0,8.2-2.8,22.4-23.9,22.4c-9.1,0-19.8-4.7-20.5-16.4h8.5
		c2.2,0,4.4,1.3,5.4,3.1c1.9,2.8,4.7,3.8,8.2,3.8c6.9,0,10.4-5.4,10.1-12.6V170h-0.3c-2.8,5.4-8.2,7.9-13.9,7.9
		c-13.9,0-19.8-11.3-19.8-25.2c0-15.4,9.1-25.2,23-25.2C-37,127.5-32,129.4-27.9,132.9 M-32,153.7c0-8.2-2.5-15.4-10.7-15.4
		c-7.2,0-10.4,6.9-10.4,14.5c0,7.2,2.5,15.1,10.4,15.1C-35.7,167.5-32,160.9-32,153.7">
  </path>
  <path class="st2" d="M-131.5,170.3c8.5,0,11.3-8.2,11.3-16.1c0-8.2-2.5-16.4-11.3-16.4c-8.5,0-11,8.2-11,16.4
		C-142.8,162.2-140.3,170.3-131.5,170.3 M-131.5,127.5c14.5,0,23.9,10.7,23.9,26.8s-9.4,26.4-23.9,26.4s-23.9-10.7-23.9-26.4
		C-155.4,138.2-145.9,127.5-131.5,127.5">
  </path>
  <path class="st2" d="M-162.6,163.7c-3.5,12-11,17-21.7,17c-14.5,0-23.6-11-23.6-26.4c0-15.1,9.4-26.8,23.6-26.8
		c15.7,0,23.3,14.5,22.4,29.9h-33.1c0.3,8.8,4.4,12.9,11.3,12.9c3.8,0,6.9-1.9,8.8-4.1c1.3-1.6,3.1-2.5,5-2.5H-162.6z M-174.6,148.9
		c-1.3-6.9-3.8-10.7-10.1-10.7c-8.2,0-10.4,6.9-10.4,10.7H-174.6z">
  </path>
  <path class="st2" d="M-323.2,143.6c-2.5,0-4.4-1.3-5.7-3.5c-1.6-2.8-4.4-3.5-7.9-3.5c-2.8,0-6.9,0.6-6.9,4.7c0,5,7.2,5.7,14.5,7.6
		c7.6,1.9,14.5,4.7,14.5,14.2c0,13.2-10.4,17.6-21.1,17.6s-21.1-4.4-21.7-17.6h12c0,6,4.7,8.5,9.8,8.5c3.8,0,8.2-1.6,8.2-6.3
		c0-4.1-5.4-5.7-14.5-7.9c-7.2-1.9-14.8-4.7-14.8-13.5c0-12.9,10.1-16.4,20.2-16.4s19.5,3.8,20.5,16.1
		C-316.3,143.6-323.2,143.6-323.2,143.6z">
  </path>
  <path class="st2" d="M-291.1,129.1h9.1v2.8c0,3.5-2.8,6.3-6.3,6.3h-2.8v24.9c0,4.7,0.9,6,5.4,6c1.3,0,2.5,0,3.8-0.3v10.7
		c-2.2,0.3-5,0.6-7.6,0.6c-7.9,0-14.5-1.9-14.5-12v-29.9h-7.6v-2.8c0-3.5,2.8-6.3,6.3-6.3h1.3V114h6.3c3.5,0,6.3,2.8,6.3,6.3v8.8
		H-291.1z">
  </path>
  <path class="st2" d="M-222.1,132.9c2.2-3.1,5-5.4,7.9-5.4v48.8c0,8.2-2.5,22.4-23.9,22.4c-9.1,0-19.8-4.7-20.5-16.4h8.5
		c2.2,0,4.4,1.3,5.4,3.1c1.9,2.8,4.7,3.8,8.2,3.8c6.9,0,10.4-5.4,10.1-12.6V170h-0.3c-2.8,5.4-8.2,7.9-13.9,7.9
		c-13.9,0-19.8-11.3-19.8-25.2c0-15.4,9.1-25.2,23-25.2C-231.3,127.5-226.2,129.4-222.1,132.9 M-226.2,153.7
		c0-8.2-2.5-15.4-10.7-15.4c-7.2-0.3-10.4,6.6-10.4,14.2c0,7.2,2.5,15.1,10.4,15.1C-230,167.5-226.2,160.9-226.2,153.7">
  </path>
  <path class="st2" d="M-262.1,173.8c0,3.8-3.1,6.9-6.9,6.9c-3.8,0-6.9-3.1-6.9-6.9c0-3.8,3.1-6.9,6.9-6.9
		C-265.3,166.9-262.1,170-262.1,173.8">
  </path>
  <path class="st3" d="M-374.9,171c5.7,9.1,16.1,15.7,26.4,17.3c18.6,2.2,36.2-6.6,54.8,0.3c8.8,3.1,16.1,8.2,20.5,15.7
		c-3.8-1.6-6.3-2.8-11-4.4c-8.2-2.5-15.1-1.6-23.3-0.3c-15.7,2.2-31.2,7.2-46.3,0C-365.1,194.3-372,182.9-374.9,171">
  </path>
  <path class="st4" d="M-395,99.2c1.3,5,0,9.8-0.6,15.7c-0.6,5,0.9,10.1,5.7,11.3c3.8,1.3,12.6,0.9,18.6,6.3c1.9,1.9,2.5,2.2,2.8,5
		c0.3,1.6,0,3.8-0.3,5c-1.6,4.4-3.1,8.5-5.7,12c-4.1,4.7-8.5,9.1-14.2,11c-10.4,3.5-16.7-6.9-24.9-11.3c-3.5-1.9-7.9-3.1-11.3,0.3
		c-5.4,5.4-4.7,13.5-1.9,19.5c5.7,11,17.3,20.8,25.5,29c-14.5,3.8-29.3,7.6-43.8,3.5c-6.9-1.9-13.2-10.4-16.1-17
		c-5-10.7-8.2-36.2-33.7-54.2c12.6,1.6,17.9,2.8,26.1-2.8c1.9-1.3,2.2-3.5,2.2-5.7c-1.3-8.8-8.5-13.5-13.2-19.5
		c3.5,1.3,6.9,2.2,10.7,2.5c5.4,0.6,10.4-0.6,14.8-3.1c14.8-8.8-2.2-29.3-2.2-29.3s15.7,11.3,25.5,9.8c3.5-0.6,5.7-1.9,7.2-4.7
		c4.4-7.2,8.2-14.8,11.3-22.4c-0.6,6.9-1.6,14.5,0.3,21.1c1.9,6.3,7.2,7.6,12.3,11C-397.5,93.5-395.6,95.1-395,99.2">
  </path>
  <path class="st5" d="M-422.1,108.3c-2.5,3.5-1.9,8.8,2.5,9.1c2.8,0,6-1.3,6.9-4.1c0.9-2.8-0.3-5.4-2.5-7.2
		C-417.4,104.8-420.2,105.8-422.1,108.3">
  </path>
  <path class="st1" d="M-479.4,114.3c3.5,1.9,7.2,4.7,10.4,7.9c3.5,3.5,7.9,12,2.2,18.6c-2.2,2.5-6,3.8-9.4,3.8
		c-5.4,0.3-12-1.6-15.7-4.4c0.9,0,12.6,2.2,18.3-0.6c1.9-0.9,3.8-3.1,2.5-8.2c-1.6-6.6-7.9-11.3-17.9-17.9c-1.3-0.6-1.9-2.2-2.5-3.8
		C-492,108.9-485.7,110.5-479.4,114.3">
  </path>
  <path class="st1" d="M-468.4,115.9c3.5,3.1,8.5,3.8,12.3,1.3c4.1-2.8,4.1-10.1,3.1-14.2c-2.2-11.7-8.5-21.7-17-26.4
		c4.1,9.1,9.1,18.6,11,28.3c0.3,2.2,0.6,4.7-0.3,6.6c-2.2,4.4-10.1,1.6-14.2-0.6C-471.8,112.7-468.4,115.9-468.4,115.9">
  </path>
  <path class="st1" d="M-441.6,88.2c7.2-0.9,7.2-7.6,8.2-12.9c0.9-4.7,3.1-9.4,6.3-13.5c2.5-3.1,3.8-4.1,6-6.9c5-6,8.2-7.6,8.2-7.6
		s-10.4,16.7-12.6,24.9c-1.9,7.2,0.3,16.1-7.9,20.8c-6.9,3.8-13.9,0.6-18.6-3.5c-2.5-2.2-4.1-4.4-5-7.9
		C-452.3,84.4-447.9,88.8-441.6,88.2">
  </path>
  <path class="st1" d="M-413.9,86.3c3.1,3.1,6.9,4.4,10.7,6.9c3.5,2.2,5.7,4.7,6.9,8.5c1.6,5.4-0.9,11-0.6,16.7
		c0.6,9.4,7.2,9.1,15.7,9.4c5,0.3,13.9,4.4,12.9,11.7c-0.3,3.1-0.9,5-2.8,7.2c-2.2,1.6-4.7,2.5-6.6,0.9c4.1-1.3,5.7-2.8,6-7.2
		c0.3-2.2-1.3-4.7-2.2-5.4c-1.6-1.6-4.1-3.8-10.4-3.5c-4.7,0-8.8,0.3-13.2-2.8c-2.2-1.6-3.1-2.8-4.4-5.4c-2.8-6,0.9-12.9,0-18.9
		c-0.3-3.1-3.8-6.3-6.6-8.2c-4.4-2.8-9.4-4.4-12.3-9.8c-4.1-7.6-0.6-17,4.4-24.6C-416.1,69.9-419.9,79.7-413.9,86.3">
  </path>
  <path class="st1" d="M-410.8,115.2c2.8-3.1,1.3-7.6-2.5-9.1c-1.9-0.9-4.7-1.3-6.9-0.6c-0.6,0.3-2.5,0.6-3.5,2.2
		c0.9-0.3,2.5-0.6,4.1-0.9c2.2,0,2.5,0.9,2.5,0.9s-2.8,0.6-3.5,3.1c-0.6,1.9,0,4.1,1.6,5C-416.7,118.4-413,117.8-410.8,115.2">
  </path>
  <path class="st1" d="M-449.8,113.7c2.8-4.1,6-7.9,9.4-11c-0.3,3.5-1.9,6.9-3.5,10.1c-7.9,16.4-14.5,27.7-17,49.4
		c-2.5,20.8,2.5,31.2,5.7,35.9c0.9,1.6,0.3,5.4-1.6,7.2c-1.9,2.5-7.2-0.6-7.2-0.6s-0.9-2.5-1.9-5c-1.9-6.9-3.1-13.9-3.5-21.4
		C-470.6,155.5-464,133.2-449.8,113.7">
  </path>
  <path class="st1" d="M-399.7,143.6c7.6,5.7,15.7,8.8,23.9,12.3c-0.9,3.1-1.9,3.5-4.1,5.7c-5.7-1.6-11.7-4.1-15.4-7.9
		c-5.4-4.7-9.4-8.8-11.3-15.7C-403.8,139.2-402.3,141.7-399.7,143.6">
  </path>
  <path class="st1" d="M-417.1,149.2c8.2,1.3,11,6.3,16.7,11.3c4.4,3.8,9.1,6.6,15.4,5.4c-0.9,4.7-6.6,6-11.7,5
		c-8.5-1.3-10.1-7.9-15.7-13.9c-3.8-4.1-10.7-3.5-14.8,1.9c-5.4,6.6,0,17.9,4.4,23.3c4.7,5.7,8.8,9.8,13.5,14.2c0,0,6.6,6.3,10.1,11
		c-13.2-6.6-22-12.6-31.5-24.2c-4.4-5.7-5.4-10.4-5.7-16.1c0.3-5.4,0.6-9.1,4.4-13.5c3.8-4.7,9.1-5.7,15.4-4.7">
  </path>
  <path class="st5" d="M-382.1,138.9c-1.6,0.6-3.1,2.5-2.5,4.1c0.6,1.9,2.8,2.2,4.7,0.9c0.6-0.6,0.9-1.6,1.3-2.2
		c0-1.3-0.9-2.5-2.5-3.1C-381.5,138.5-381.8,138.9-382.1,138.9">
  </path>
  <path class="st1" d="M-380.2,137.3c0.9,0,1.9,0.6,2.8,1.3c0.9,0.9,0.6,2.8-0.6,4.1c-1.6,1.3-3.1,1.6-4.7,0c-0.9-0.9-0.9-2.8,0-4.1
		C-382.1,137.6-381.5,137.3-380.2,137.3">
  </path>
  <path class="st2" d="M-88.3,155.5v23.9h-12.6v-52c0,0,4.4-0.6,8.8,6.3c2.2-2.5,7.6-6.3,14.8-6.3c8.5,0,13.2,4.1,13.2,4.1
		s-1.9,2.5-3.1,5.7c-1.6,2.8-2.5,6-2.5,6s-3.1-2.8-6.9-2.8C-81.1,140.4-88.3,143.9-88.3,155.5z">
  </path>
 </g>
</svg>